<?xml version="1.0" standalone="no"?><!DOCTYPE svg PUBLIC "-//W3C//DTD SVG 1.1//EN" "http://www.w3.org/Graphics/SVG/1.1/DTD/svg11.dtd"><svg t="1503043833076" class="icon" style="" viewBox="0 0 1024 1024" version="1.1" xmlns="http://www.w3.org/2000/svg" p-id="2128" xmlns:xlink="http://www.w3.org/1999/xlink" width="16" height="16"><defs><style type="text/css"></style></defs><path d="M950.845375 474.18065c-6.985088-11.517311-172.895769-282.325064-425.872411-282.325064l-26.929326 0c-253.011434 0-418.919045 270.807752-425.869341 282.325064-9.872858 16.369829-9.872858 37.020148 0 53.389978 6.950296 11.533684 172.85893 282.357809 425.869341 282.357809l26.929326 0c252.976642 0 418.887322-270.823102 425.872411-282.357809C960.682417 511.200798 960.682417 490.550479 950.845375 474.18065zM524.973988 707.800431l-26.929326 0c-155.902746 0-277.790794-145.612379-322.213539-206.925816 44.456514-61.346183 166.310793-206.891024 322.213539-206.891024l26.929326 0c155.971307 0 277.892101 145.71164 322.248332 206.975958C803.002189 562.306756 681.582815 707.800431 524.973988 707.800431zM521.516236 364.16193c-74.040297 0-134.077671 60.793598-134.077671 135.77329 0 75.013461 60.037375 135.789663 134.077671 135.789663 74.040297 0 134.042879-60.777225 134.042879-135.789663C655.559115 424.955528 595.555509 364.16193 521.516236 364.16193z" p-id="2129" fill="#999999"></path></svg>