<?xml version="1.0" standalone="no"?><!DOCTYPE svg PUBLIC "-//W3C//DTD SVG 1.1//EN" "http://www.w3.org/Graphics/SVG/1.1/DTD/svg11.dtd"><svg t="1503300549295" class="icon" style="" viewBox="0 0 1024 1024" version="1.1" xmlns="http://www.w3.org/2000/svg" p-id="1820" xmlns:xlink="http://www.w3.org/1999/xlink" width="16" height="16"><defs><style type="text/css"></style></defs><path d="M510.108916 246.984367c132.551795 0 238.628414 106.076619 238.628414 238.628414S642.660711 724.241196 510.108916 724.241196 271.480502 618.164577 271.480502 485.612781s106.076619-238.628414 238.628414-238.628414m0-53.03831c-159.114929 0-291.666724 132.551795-291.666724 291.666724S350.993987 777.279505 510.108916 777.279505 801.77564 644.72771 801.77564 485.612781 669.223845 193.946057 510.108916 193.946057z" p-id="1821" fill="#999999"></path><path d="M510.108916 315.942965c-15.920289 0-26.475176 10.642845-26.475176 26.475176v153.837485c0 15.920289 10.642845 26.475176 26.475176 26.475176 15.920289 0 26.475176-10.642845 26.475176-26.475176V342.418141c0-15.920289-10.554887-26.475176-26.475176-26.475176z" p-id="1822" fill="#999999"></path><path d="M487.943652 482.974059c-8.180038 13.633396-4.661742 28.146367 8.971655 36.414362l86.46212 52.158736c13.633396 8.180038 28.146367 4.661742 36.414361-8.971655 8.180038-13.633396 4.661742-28.146367-8.971654-36.414361l-86.46212-52.158736c-13.633396-8.267995-28.146367-4.661742-36.414362 8.971654z" p-id="1823" fill="#999999"></path></svg>